<?xml version="1.0" encoding="UTF-8" standalone="no"?>
<!-- Created with Inkscape (http://www.inkscape.org/) -->

<svg
        xmlns:dc="http://purl.org/dc/elements/1.1/"
        xmlns:cc="http://creativecommons.org/ns#"
        xmlns:rdf="http://www.w3.org/1999/02/22-rdf-syntax-ns#"
        xmlns:svg="http://www.w3.org/2000/svg"
        xmlns="http://www.w3.org/2000/svg"
        xmlns:sodipodi="http://sodipodi.sourceforge.net/DTD/sodipodi-0.dtd"
        xmlns:inkscape="http://www.inkscape.org/namespaces/inkscape"
        width="45"
        height="15"
        viewBox="0 0 44.999999 15"
        id="svg2"
        version="1.1"
        inkscape:version="0.91 r13725"
        sodipodi:docname="free_flag.svg">
    <defs id="defs4" />
    <metadata
            id="metadata7">
        <rdf:RDF>
            <cc:Work
                    rdf:about="">
                <dc:format>image/svg+xml</dc:format>
                <dc:type
                        rdf:resource="http://purl.org/dc/dcmitype/StillImage" />
                <dc:title></dc:title>
            </cc:Work>
        </rdf:RDF>
    </metadata>
    <g
        inkscape:label="Layer 1"
        inkscape:groupmode="layer"
        id="layer1"
        transform="translate(0,-1037.3622)">
        <path
            style="fill:#5facbe;fill-opacity:1;fill-rule:evenodd;stroke:none;stroke-width:1px;stroke-linecap:butt;stroke-linejoin:miter;stroke-opacity:1"
            d="m 0,1037.3622 0,15 45,0 -7.5,-7.5 7.5,-7.5 z m 9.310547,1.418 c 0.3238638,0 0.6177208,0.011 0.880859,0.035 0.263139,0.02 0.496806,0.049 0.699219,0.086 l 0,1.543 -0.164062,0 c -0.09716,-0.029 -0.22493,-0.062 -0.382813,-0.098 -0.153835,-0.037 -0.319922,-0.055 -0.4980472,-0.055 -0.4291189,0 -0.7211647,0.077 -0.8749996,0.2305 -0.1497864,0.1538 -0.2246093,0.4513 -0.2246093,0.8926 l 0,0.055 1.6894531,0 0,1.4824 -1.6152344,0 0,8.0229 -2.1875007,10e-5 0,-8.0229 -1.3710937,0 0,-1.4824 1.3710937,0 0,-0.1875 c 0,-0.834 0.2208457,-1.46 0.6621094,-1.877 0.445312,-0.417 1.1169047,-0.625 2.0156251,-0.625 z m 10.866,2.4766 c 1.10923,0 1.943288,0.2829 2.501953,0.8457 0.558664,0.5586 0.77723,1.3651 0.83789,2.416 l 0,0.7656 -5.003906,0 c 0.03239,0.5344 0.23498,0.9432 0.607422,1.2266 0.376491,0.2833 0.929511,0.4238 1.658203,0.4238 0.461505,0 0.90863,-0.082 1.341797,-0.248 0.433167,-0.166 0.774397,-0.3449 1.025391,-0.5352 l 0.24414,0 0,1.7559 c -0.493891,0.1984 -0.959269,0.3425 -1.396484,0.4316 -0.437216,0.089 -0.920846,0.1328 -1.451172,0.1328 -1.368322,0 -2.417794,-0.3084 -3.146484,-0.9238 -0.728693,-0.6154 -1.09375,-1.4914 -1.09375,-2.6289 0,-1.1255 0.344993,-2.0161 1.033203,-2.6719 0.692258,-0.6599 1.639453,-0.9902 2.841797,-0.9902 z m 7.548828,0 c 1.109231,0 1.943289,0.2829 2.501953,0.8457 0.558664,0.5586 0.77723,1.3651 0.83789,2.416 l 0,0.7656 -5.003906,0 c 0.03239,0.5344 0.234979,0.9432 0.607422,1.2266 0.376491,0.2833 0.92951,0.4238 1.658203,0.4238 0.461505,0 0.90863,-0.082 1.341797,-0.248 0.433167,-0.166 0.774397,-0.3449 1.025391,-0.5352 l 0.24414,0 0,1.7559 c -0.493891,0.1984 -0.961222,0.3425 -1.398437,0.4316 -0.437216,0.089 -0.920846,0.1328 -1.451172,0.1328 -1.368323,0 -2.415839,-0.3084 -3.144531,-0.9238 -0.728692,-0.6154 -1.09375,-1.4914 -1.09375,-2.6289 0,-1.1255 0.344993,-2.0161 1.033203,-2.6719 0.692257,-0.6599 1.639454,-0.9902 2.841797,-0.9902 z m -11.982422,0.1894 c 0.07692,0 0.16456,0 0.261718,0.01 0.09716,0.01 0.181037,0.012 0.253907,0.018 l 0,2.08 -0.19336,0 c -0.09311,-0.033 -0.242756,-0.058 -0.449218,-0.074 -0.206463,-0.016 -0.377983,-0.023 -0.515625,-0.023 -0.311719,0 -0.587323,0.02 -0.826172,0.061 -0.238849,0.041 -0.4962,0.1101 -0.771484,0.2071 l 0,4.5664 -2.185547,0 0,-6.8184 2.185547,0 0,1.002 c 0.481746,-0.413 0.899609,-0.6868 1.255859,-0.8204 0.356249,-0.1376 0.684801,-0.207 0.984375,-0.207 z m 4.257812,1.1778 c -0.421022,0 -0.767827,0.1095 -1.039062,0.3281 -0.271236,0.2186 -0.422692,0.569 -0.455078,1.0508 l 2.835937,0 c -0.01215,-0.4574 -0.125286,-0.8024 -0.339844,-1.0332 -0.214559,-0.2308 -0.548544,-0.3457 -1.001953,-0.3457 z m 7.548828,0 c -0.421022,0 -0.767826,0.1095 -1.039062,0.3281 -0.271235,0.2186 -0.422692,0.569 -0.455078,1.0508 l 2.835937,0 c -0.01215,-0.4574 -0.125286,-0.8024 -0.339843,-1.0332 -0.21456,-0.2308 -0.548545,-0.3457 -1.001954,-0.3457 z"
            id="rect3338-5-8"/>
    </g>
</svg>
